<svg width="14" height="14" viewBox="0 0 14 14" fill="none" xmlns="http://www.w3.org/2000/svg">
<g opacity="0.7">
<path d="M12.8346 11.8551C12.8346 11.9711 12.7885 12.0824 12.7065 12.1645C12.6244 12.2465 12.5132 12.2926 12.3971 12.2926H9.42214C9.32469 12.6559 9.1101 12.977 8.81163 13.206C8.51316 13.4349 8.14749 13.559 7.7713 13.559C7.39512 13.559 7.02944 13.4349 6.73097 13.206C6.4325 12.977 6.21791 12.6559 6.12047 12.2926H1.60547C1.48944 12.2926 1.37816 12.2465 1.29611 12.1645C1.21406 12.0824 1.16797 11.9711 1.16797 11.8551C1.16797 11.7391 1.21406 11.6278 1.29611 11.5457C1.37816 11.4637 1.48944 11.4176 1.60547 11.4176H6.12047C6.21791 11.0542 6.4325 10.7332 6.73097 10.5042C7.02944 10.2753 7.39512 10.1511 7.7713 10.1511C8.14749 10.1511 8.51316 10.2753 8.81163 10.5042C9.1101 10.7332 9.32469 11.0542 9.42214 11.4176H12.3971C12.5132 11.4176 12.6244 11.4637 12.7065 11.5457C12.7885 11.6278 12.8346 11.7391 12.8346 11.8551ZM12.8346 4.14926C12.8346 4.26529 12.7885 4.37657 12.7065 4.45862C12.6244 4.54067 12.5132 4.58676 12.3971 4.58676H10.968C10.8705 4.9501 10.6559 5.27115 10.3575 5.50013C10.059 5.7291 9.69332 5.85321 9.31714 5.85321C8.94095 5.85321 8.57528 5.7291 8.27681 5.50013C7.97834 5.27115 7.76374 4.9501 7.6663 4.58676H1.60547C1.54802 4.58676 1.49112 4.57544 1.43804 4.55346C1.38496 4.53147 1.33674 4.49925 1.29611 4.45862C1.25548 4.41799 1.22326 4.36976 1.20127 4.31668C1.17928 4.2636 1.16797 4.20671 1.16797 4.14926C1.16797 4.09181 1.17928 4.03492 1.20127 3.98184C1.22326 3.92876 1.25548 3.88053 1.29611 3.8399C1.33674 3.79928 1.38496 3.76705 1.43804 3.74506C1.49112 3.72308 1.54802 3.71176 1.60547 3.71176H7.6663C7.76374 3.34842 7.97834 3.02737 8.27681 2.79839C8.57528 2.56942 8.94095 2.44531 9.31714 2.44531C9.69332 2.44531 10.059 2.56942 10.3575 2.79839C10.6559 3.02737 10.8705 3.34842 10.968 3.71176H12.3971C12.4548 3.71098 12.512 3.72176 12.5655 3.74346C12.6189 3.76517 12.6675 3.79737 12.7082 3.83815C12.749 3.87894 12.7812 3.92748 12.8029 3.98091C12.8246 4.03435 12.8354 4.09159 12.8346 4.14926ZM12.8346 7.99926C12.8354 8.05693 12.8246 8.11417 12.8029 8.16761C12.7812 8.22104 12.749 8.26959 12.7082 8.31037C12.6675 8.35115 12.6189 8.38335 12.5655 8.40506C12.512 8.42676 12.4548 8.43754 12.3971 8.43676H5.57214C5.47469 8.8001 5.2601 9.12115 4.96163 9.35013C4.66316 9.5791 4.29749 9.70321 3.9213 9.70321C3.54512 9.70321 3.17944 9.5791 2.88097 9.35013C2.5825 9.12115 2.36791 8.8001 2.27047 8.43676H1.60547C1.48944 8.43676 1.37816 8.39067 1.29611 8.30862C1.21406 8.22657 1.16797 8.11529 1.16797 7.99926C1.16797 7.88323 1.21406 7.77195 1.29611 7.6899C1.37816 7.60785 1.48944 7.56176 1.60547 7.56176H2.27047C2.36791 7.19842 2.5825 6.87737 2.88097 6.64839C3.17944 6.41942 3.54512 6.29531 3.9213 6.29531C4.29749 6.29531 4.66316 6.41942 4.96163 6.64839C5.2601 6.87737 5.47469 7.19842 5.57214 7.56176H12.3971C12.5132 7.56176 12.6244 7.60785 12.7065 7.6899C12.7885 7.77195 12.8346 7.88323 12.8346 7.99926Z" fill="#031119"/>
</g>
</svg>
